<svg xmlns="http://www.w3.org/2000/svg" aria-hidden="true"><defs><symbol id="icon-ri_user-fill" viewBox="0 0 32 32"><path fill="#4f2ee8" d="M5.333 29.333a10.666 10.666 0 0 1 21.332 0H5.332zm10.667-12c-4.42 0-8-3.58-8-8s3.58-8 8-8 8 3.58 8 8-3.58 8-8 8z" /></symbol><symbol id="icon-fi-ss-caret-down" viewBox="0 0 28 32"><path fill="#fff" d="M5.898 12h16.513l-7.423 8.391c-.221.25-.521.39-.834.39s-.613-.14-.834-.39L5.898 12z" /></symbol><symbol id="icon-uil_cart" viewBox="0 0 32 32"><path d="M25.333 9.333h-4V8a5.332 5.332 0 1 0-10.666 0v1.333h-4a1.335 1.335 0 0 0-1.334 1.334v14.667a4.003 4.003 0 0 0 4 4h13.333a4.003 4.003 0 0 0 4-4V10.667a1.335 1.335 0 0 0-1.334-1.334zM13.333 8a2.668 2.668 0 0 1 5.334 0v1.333h-5.333V8zM24 25.333a1.335 1.335 0 0 1-1.334 1.334H9.333a1.335 1.335 0 0 1-1.334-1.334V12h2.667v1.333a1.335 1.335 0 0 0 2.277.943c.25-.251.391-.589.391-.943V12h5.333v1.333a1.333 1.333 0 1 0 2.667 0V12h2.667v13.333z"/></symbol><symbol id="icon-logo" viewBox="0 0 32 32"><path fill="#f6f6f6" d="m0 0 16.343 16.171L32 32V0H0z" /><path fill="#f6f6f6" d="M4.457 4.229 16.4 16.058l11.257 11.486h-23.2V4.23z" /><path fill="#4f2ee8" d="M27.733 27.618 15.79 15.789 4.533 4.303h23.2v23.314z" /><path fill="#4f2ee8" d="m9.257 9.029 13.6 13.6h-13.6v-13.6z" /><path fill="#f6f6f6" d="m9.257 9.029 13.6 13.6v-13.6h-13.6z" /></symbol><symbol id="icon-close" viewBox="0 0 32 32"><path d="M32 3.223 28.777 0 16 12.777 3.223 0 0 3.223 12.777 16 0 28.777 3.223 32 16 19.223 28.777 32 32 28.777 19.223 16 32 3.223z"/></symbol><symbol id="icon-paragraph-left" viewBox="0 0 32 32"><path d="M0 2h32v4H0zm0 6h20v4H0zm0 12h20v4H0zm0-6h32v4H0zm0 12h32v4H0z"/></symbol></defs></svg>